<?xml version="1.0" encoding="UTF-8"?>
<svg id="Layer_1" xmlns="http://www.w3.org/2000/svg" version="1.1" viewBox="0 0 120.2 122.9">
  <!-- Generator: Adobe Illustrator 29.3.1, SVG Export Plug-In . SVG Version: 2.1.0 Build 151)  -->
  <defs>
    <style>
      .st0 {
        fill: context-fill;
        fill-rule: evenodd;
      }
    </style>
  </defs>
  <path class="st0" d="M98.2,0c3.3,0,6,2.7,6,6s-2.7,6-6,6-6-2.7-6-6,2.7-6,6-6h0ZM99.8,52.1c5.2,7.7,11.7,10.1,20.2,4.8.3,2.9.3,5.9.2,8.9-1.7,33.2-29.9,58.7-63.1,57C23.9,121.1-1.6,92.9,0,59.8,1.7,26.6,31,.8,64.1,2.5c-2.9,9.2-.5,17.4,7,20.2-6.8,21.8,8.4,36,28.7,29.5h0ZM30,47.8c5,0,9,4,9,9s-4,9-9,9-9-4-9-9,4-9,9-9h0ZM58.3,59.2c2.9,0,5.2,2.3,5.2,5.2s-2.3,5.2-5.2,5.2-5.2-2.3-5.2-5.2,2.3-5.2,5.2-5.2h0ZM35.9,80.6c3.5,0,6.3,2.8,6.3,6.3s-2.8,6.3-6.3,6.3-6.3-2.8-6.3-6.3,2.8-6.3,6.3-6.3h0ZM49.5,32.2c2.7,0,5,2.2,5,5s-2.2,5-5,5-5-2.2-5-5,2.2-5,5-5h0ZM76.4,82.8c4.6,0,8.3,3.7,8.3,8.3s-3.7,8.3-8.3,8.3-8.3-3.7-8.3-8.3,3.7-8.3,8.3-8.3h0ZM93.9,23.1c3.1,0,5.6,2.5,5.6,5.6s-2.5,5.6-5.6,5.6-5.6-2.5-5.6-5.6,2.5-5.6,5.6-5.6h0Z"/>
</svg>