<?xml version="1.0" encoding="UTF-8"?>
<svg id="Layer_1" xmlns="http://www.w3.org/2000/svg" version="1.1" viewBox="0 0 1024 1024" fill="context-fill" fill-opacity="context-fill-opacity">
  <defs>
    <style>
      .st0 {
        isolation: isolate;
        opacity: .9;
      }
    </style>
  </defs>
  <path class="st0" d="M221.5,42h384.5l279.6,279.6v541.8l-8.7-4.4-172.6-172.6c35.4-57.9,47.7-133.3,28.4-198.8l-17.5-41.5-21.8-32.8c-46.1-58.6-124.4-93.1-198.8-87.4l-30.6,4.4-35,10.9c-205,79.5-190.6,375.3,19.7,436.9l32.8,6.6,32.8,2.2c18.9-1,56.5-6.7,74.3-13.1l41.5-19.7,6.6-4.4,8.7,2.2,203.2,203.2-10.9,10.9-21.8,8.7-13.1,2.2H219.3l-28.4-8.7-19.7-13.1-10.9-10.9-8.7-10.9-10.9-24-2.2-10.9V122.8l8.7-28.4,13.1-19.7,15.3-15.3,26.2-13.1,19.7-4.4Z"/>
  <path class="st0" d="M492.3,415.6c190-18.2,222,253.3,35,281.8-184,11.9-216.4-250-35-281.8Z"/>
</svg>