<?xml version="1.0" encoding="UTF-8"?>
<svg xmlns="http://www.w3.org/2000/svg" viewBox="0 0 134 134" width="16" height="16" fill="context-fill" fill-opacity="context-fill-opacity">
  <path d="M117.35,82.55c-4.2,11.2-12,19.9-23.2,24.5v-24.5l13.4-12.1-13.4-11.9v-16.8c12.2-.9,20.7-9.9,20.7-20.9S101.05,1.35,93.25,1.35s-3.6,0-6.3.7v.7c1,0,2.5-.2,3.1-.2,5.4,0,9.5,2.5,9.5,7.5s-3.1,7.5-8.5,7.5c-13.4,0-29.2-10.9-46.4-10.9-15.3-.1-25.9,11.3-25.9,22.9s6.6,15.1,13.6,17.7l.2-.7c-2.2-1.4-3.7-3.7-3.7-7.5s4.8-9.3,10.7-9.3c14.5,0,37.7,12.1,52.2,12.1h1.4v17l-13.5,11.6,13.4,12.1v24.8c-5.6,2-11.4,2.9-17.3,2.9-22.4,0-36.7-13.6-36.7-36.2s.7-10.7,2.2-15.8l11.2-4.9v50l22.8-10v-51.2l-33.5,14.9c3.4-9.8,10.4-17,18.7-21.1l-.2-.5c-22.4,5-44.2,22-44.2,47.5s24.8,49.8,53.7,49.8,47.9-20.4,48.1-50.2h-.5Z"/>
</svg>