<?xml version="1.0" encoding="UTF-8"?>
<svg id="Layer_1" xmlns="http://www.w3.org/2000/svg" version="1.1" viewBox="0 0 229 229" fill="context-fill" fill-opacity="context-fill-opacity">
  <path d="M35,22h4v3l-7,4-3,6v7l4,6,6,8,2,16,12-12,7-8h3l20,20,4-1,15-16,5-4,21,21v71l-10,9-15,14-12,11h-4l-14-12-9-8-4,2-9,11-7,8-4-2-11-9-11-10-3-2v-36h-7l-3,2-2,4-3-1v-13l4-8,6-4h5l-1-34-6-12v-8l4-8,9-8,14-7ZM47,72l-7,7v65l12,11,4,2,5-5v-68l-12-12h-2ZM92,72l-6,6v67l11,9,6,5v-78l-9-9h-2Z"/>
  <path d="M157,51h2l5,5,8,8,4,3,1,16,2-2,1-23h5l1,16,12-13,9-10h2v2l4,2,8,8,8,7v84l-17,13-15,11h-2l-5-5-5-3v39l-4-2-6-6-4,2-8,7-10,9h-2v-50l-12,6-6,6-3-1,2-11,6-11,9-7,4-1v-36l-9,2-4,6h-3l-1-2v-13l4-6,5-4,8-1-1-20-4-4-4,2-3,2-3-2v-2l8-7,9-10,4-4ZM194,70l-7,7-2,3v68l12,4,8,5v-77l-10-10h-1ZM179,86l-3,3v107l4,3v-113h-1Z"/>
</svg>